<?xml version="1.0" encoding="utf-8"?>
<!-- Generator: Adobe Illustrator 25.0.0, SVG Export Plug-In . SVG Version: 6.00 Build 0)  -->
<svg version="1.1" id="Capa_1" xmlns="http://www.w3.org/2000/svg" xmlns:xlink="http://www.w3.org/1999/xlink" x="0px" y="0px"
	 viewBox="0 0 368 368" style="enable-background:new 0 0 368 368;" xml:space="preserve">
<style type="text/css">
	.st0{fill:#D100CC;}
	.st1{fill:#EE82EE;}
	.st2{fill:#0029D3;}
</style>
<path class="st0" d="M152,24v112c0,8.8-7.2,16-16,16H24c-8.8,0-16-7.2-16-16V24c0-8.8,7.2-16,16-16h112C144.8,8,152,15.2,152,24z"/>
<g>
	<rect x="-28" y="-10" class="st1" width="425" height="388"/>
	<path class="st2" d="M136,0H24C10.8,0,0,10.8,0,24v112c0,13.2,10.8,24,24,24h112c13.2,0,24-10.8,24-24V24C160,10.8,149.2,0,136,0z
		 M144,136c0,4.4-3.6,8-8,8H24c-4.4,0-8-3.6-8-8V24c0-4.4,3.6-8,8-8h112c4.4,0,8,3.6,8,8V136z"/>
	<path class="st2" d="M344,0H232c-13.2,0-24,10.8-24,24v112c0,13.2,10.8,24,24,24h112c13.2,0,24-10.8,24-24V24
		C368,10.8,357.2,0,344,0z M352,136c0,4.4-3.6,8-8,8H232c-4.4,0-8-3.6-8-8V24c0-4.4,3.6-8,8-8h112c4.4,0,8,3.6,8,8V136z"/>
	<path class="st2" d="M136,208H24c-13.2,0-24,10.8-24,24v112c0,13.2,10.8,24,24,24h112c13.2,0,24-10.8,24-24V232
		C160,218.8,149.2,208,136,208z M144,344c0,4.4-3.6,8-8,8H24c-4.4,0-8-3.6-8-8V232c0-4.4,3.6-8,8-8h112c4.4,0,8,3.6,8,8V344z"/>
	<path class="st2" d="M344,208H232c-13.2,0-24,10.8-24,24v112c0,13.2,10.8,24,24,24h112c13.2,0,24-10.8,24-24V232
		C368,218.8,357.2,208,344,208z M352,344c0,4.4-3.6,8-8,8H232c-4.4,0-8-3.6-8-8V232c0-4.4,3.6-8,8-8h112c4.4,0,8,3.6,8,8V344z"/>
</g>
</svg>
